<?xml version="1.0" standalone="no"?>
<!DOCTYPE svg PUBLIC "-//W3C//DTD SVG 20010904//EN"
 "http://www.w3.org/TR/2001/REC-SVG-20010904/DTD/svg10.dtd">
<svg version="1.0" xmlns="http://www.w3.org/2000/svg"
 width="85.000000pt" height="79.000000pt" viewBox="0 0 85.000000 79.000000"
 preserveAspectRatio="xMidYMid meet">

<g transform="translate(0.000000,79.000000) scale(0.100000,-0.100000)"
fill="#000000" stroke="none">
<path d="M411 588 c-5 -13 -54 -124 -109 -248 -54 -124 -109 -246 -120 -272
l-21 -48 84 0 83 0 84 210 c45 115 86 210 89 210 3 0 43 -94 89 -210 l84 -210
84 0 c51 0 82 4 80 10 -2 5 -59 138 -128 295 l-125 284 -83 1 c-76 0 -83 -2
-91 -22z"/>
</g>
</svg>
